<svg xmlns="http://www.w3.org/2000/svg" viewBox="0 0 53.72 51.19"><defs><style>.cls-1{fill:#f7941d;}.cls-2{fill:#ed1c24;}.cls-2,.cls-3{stroke:#fff;stroke-miterlimit:10;}.cls-3{fill:#e6e7e8;}</style></defs><title>Asset 4</title><g id="Layer_2" data-name="Layer 2"><g id="Layer_1-2" data-name="Layer 1"><path class="cls-1" d="M.5,47.06h.7v4.09H.5Z"/><path class="cls-1" d="M8.48,47.08v3.75h0a.28.28,0,0,1,0,.09.31.31,0,0,1-.12.19.32.32,0,0,1-.21.08.41.41,0,0,1-.19,0H8L2.44,48v3.18h-.7V47.36a.33.33,0,0,1,.17-.3.34.34,0,0,1,.35,0l5.53,3.18V47.08Z"/><path class="cls-1" d="M9.38,51.15A.34.34,0,0,1,9,50.8V47.41a.33.33,0,0,1,.1-.25.34.34,0,0,1,.25-.11H14a1.91,1.91,0,0,1,1.43.61,2.06,2.06,0,0,1,0,2.89,1.94,1.94,0,0,1-1.43.6ZM14,50.44a1.28,1.28,0,0,0,.94-.39,1.38,1.38,0,0,0,0-1.9,1.28,1.28,0,0,0-.94-.39H9.72v2.68Z"/><path class="cls-1" d="M23,50a1.09,1.09,0,0,1-.31.79,1.08,1.08,0,0,1-.78.32H17.63a1.08,1.08,0,0,1-.78-.32,1.1,1.1,0,0,1-.32-.79V48.16a1.1,1.1,0,0,1,.32-.78,1.05,1.05,0,0,1,.78-.33h4.26a1.05,1.05,0,0,1,.78.33,1.09,1.09,0,0,1,.31.78Zm-.69-1.88a.41.41,0,0,0-.4-.4H17.63a.41.41,0,0,0-.4.4V50a.4.4,0,0,0,.12.29.36.36,0,0,0,.28.11h4.26a.36.36,0,0,0,.28-.11.4.4,0,0,0,.12-.29Z"/><path class="cls-1" d="M30.27,47.08v3.75h0a.28.28,0,0,1,0,.09.31.31,0,0,1-.12.19.32.32,0,0,1-.21.08.41.41,0,0,1-.19,0h0L24.23,48v3.18h-.7V47.36a.33.33,0,0,1,.17-.3.34.34,0,0,1,.35,0l5.53,3.18V47.08Z"/><path class="cls-1" d="M31.51,49.48V50a.4.4,0,0,0,.12.29.37.37,0,0,0,.28.11h5.52v.71H31.91A1.09,1.09,0,0,1,30.82,50V48.16a1.06,1.06,0,0,1,.32-.78,1,1,0,0,1,.77-.33h5.52v.71H31.91a.38.38,0,0,0-.28.12.36.36,0,0,0-.12.28v.61h5.92v.71Z"/><path class="cls-1" d="M44.15,47.76h-5.1l-.14,0a.44.44,0,0,0-.16.06.48.48,0,0,0-.19.41.59.59,0,0,0,0,.14.33.33,0,0,0,.07.17.45.45,0,0,0,.4.19h4a1.19,1.19,0,0,1,.77.27,1.11,1.11,0,0,1,.42.93,1.23,1.23,0,0,1-.27.78,1.1,1.1,0,0,1-.92.42H38v-.71h5.09a.45.45,0,0,0,.41-.19.59.59,0,0,0,.07-.16.66.66,0,0,0,0-.14.44.44,0,0,0-.19-.41.59.59,0,0,0-.16-.07l-.14,0h-4a1.1,1.1,0,0,1-.92-.41,1.22,1.22,0,0,1-.26-.78,1.14,1.14,0,0,1,.41-.94,1.19,1.19,0,0,1,.77-.27h5.1Z"/><path class="cls-1" d="M44.69,47.06h.7v4.09h-.7Z"/><path class="cls-1" d="M46.63,49.9v1.25h-.7v-3a1.1,1.1,0,0,1,.32-.78,1,1,0,0,1,.77-.32h4.27a1,1,0,0,1,.77.32,1.06,1.06,0,0,1,.32.78v3h-.69V49.9Zm5.06-.7v-1a.41.41,0,0,0-.4-.4H47a.38.38,0,0,0-.28.12.41.41,0,0,0-.11.28v1Z"/><path class="cls-2" d="M20.5,35.5h-7c-2.14,0-3.33-1-2.74-3.09l1.87-7.3L29.17,25C26.17,23,24,20,24,16.64H14.79l2-6.12a3,3,0,0,1,2.8-2H47.5l-.71-2.37A7.87,7.87,0,0,0,39.24.5H17.17A10.06,10.06,0,0,0,7.45,8L1,32a9.09,9.09,0,0,0,8.59,12h7.62Z"/><path class="cls-3" d="M52.74,31,49.11,16.64c0-.15-11.57,0-11.57,0-4.33,0-1.43-6.24-1.43-6.24h-9l-.78,2.77C24.89,19,30.2,25.06,34.58,25.06h6.67L43,31.41c.59,2.06.4,4.09-1.74,4.09L23,35.53l-3.09,8.4H44.16C50.35,43.92,54.71,36.83,52.74,31Z"/></g></g></svg>