<svg xmlns="http://www.w3.org/2000/svg" viewBox="0 0 56.2 53.12"><defs><style>.cls-1{fill:#ed1c24;}.cls-1,.cls-2{stroke:#414042;stroke-miterlimit:10;}.cls-2,.cls-4{fill:#fff;}.cls-3{font-size:7.54px;fill:#414042;font-family:Suissnord;}</style></defs><title>Asset 1</title><g id="Layer_2" data-name="Layer 2"><g id="Layer_1-2" data-name="Layer 1"><path class="cls-1" d="M45.35,3A4.55,4.55,0,0,0,41.3.5H15.84A9.84,9.84,0,0,0,8.28,3.93c-2.08,2.26-4.12,5-4.12,8.18l-3,19.74a11.7,11.7,0,0,0,3.12,8.22,9.9,9.9,0,0,0,7.56,3.39h7l3.71-7.4H14.84a3.56,3.56,0,0,1-2.73-1.24,4.21,4.21,0,0,1-1.14-3L12,26l16.77-.09c-4.22-2.82-4.64-4.48-6.07-7.31H13l1-6.44c0-1.16.38-1.15,1.14-2A6,6,0,0,1,18.84,8.9H47.89Z"/><path class="cls-2" d="M51.11,18.23l-13,.05C33.2,18.1,31.52,14,31.63,11H23.42c-.56,3.82,2,8,3.74,10.33,2.15,2.93,6.14,4.39,10,4.39h6.48l2.18,7.54a2.22,2.22,0,0,1-2.13,2.84h-18L22,43.46H46.63a9.09,9.09,0,0,0,8.59-12Z"/><text class="cls-3" transform="translate(2.43 50.65)">INDONESIA</text><line class="cls-4" y1="23.83" y2="24.66"/></g></g></svg>